<svg role="img" viewBox="0 0 24 24" xmlns="http://www.w3.org/2000/svg" fill="currentColor"><title>Google Chrome</title><path d="M12 0C8.21 0 4.831 1.757 2.632 4.476L6.5 11.178c.844-2.457 3.14-4.223 5.908-4.223h9.452C20.081 2.923 16.368 0 12 0zm-2.023 6.955H6.282A5.5 5.5 0 1 0 12 17.5h.016l-3.322-5.748c-.628-.86-.998-1.921-.998-3.056 0-1.077.34-2.083.908-2.906h-5.061l3.523-6.102A11.972 11.972 0 0 0 0 12c0 6.627 5.373 12 12 12 3.123 0 5.968-1.196 8.118-3.153l-6.183-10.71a5.454 5.454 0 0 0-3.958-2.148zm12.35 1.583a12.012 12.012 0 0 1 1.673 6.13c0 5.867-4.218 10.748-9.8 11.834L17.7 15.11a5.498 5.498 0 0 0 1.258-3.486c0-2.31-1.428-4.288-3.447-5.093h6.816z"/></svg>
