<svg role="img" viewBox="0 0 24 24" xmlns="http://www.w3.org/2000/svg" fill="currentColor"><title>Microsoft Edge</title><path d="M1.385 14.502c.084 1.15.545 2.186 1.488 2.822.428.291 1.096.657 1.764.555.702-.109 1.405-.626 1.787-1.127.603-.787.973-1.859.882-2.852a4.428 4.428 0 00-1.036-2.584C5.105 10 3.738 9.308 2.371 9.098c-.28-.044-.652-.06-1.002.046a.355.355 0 00-.236.467c.189.623.238 1.34.254 1.942v1.942z"/><path d="M1.802 8.784c1.134.195 2.502.822 3.636 1.996a6.113 6.113 0 011.666 4.316c-.053 1.267-.53 2.535-1.155 3.593-.65 1.095-1.558 1.96-2.565 2.651l.307.245c1.474 1.161 3.292 1.832 5.093 2.138 1.832.311 3.844.204 5.568-.584a8.681 8.681 0 004.286-3.791c1.236-2.091 1.637-4.707.97-7.009-.594-2.046-1.921-3.784-3.535-5.068-1.564-1.246-3.415-2.036-5.321-2.483-1.821-.428-3.755-.383-5.54.21C3.592 5.539 2.215 6.452 1.15 7.63c-.156.17-.37.387-.5.597l.117.15c.29.378.688.175 1.035.407z"/><path d="M22.951 14.153a8.163 8.163 0 00-1.464-3.642C19.782 8.01 17.149 6.22 14.075 5.86c-2.915-.341-5.748.868-7.794 2.872a9.231 9.231 0 00-2.614 4.545c1.378-.458 3.123-.612 4.606-.053.864.325 1.644.897 2.251 1.625.598.718 1.026 1.583 1.247 2.493a7.359 7.359 0 01.127 2.827c-.201 1.229-.691 2.378-1.392 3.391-.707 1.018-1.631 1.89-2.73 2.502 1.12.383 2.377.585 3.598.541a10.609 10.609 0 005.158-1.439c1.905-1.088 3.565-2.83 4.561-4.82a9.78 9.78 0 001.365-4.43c.036-.576.223-1.206.493-1.761z"/></svg>
